<mxfile host="app.diagrams.net" modified="2024-02-08T00:55:40.798Z" agent="Mozilla/5.0 (Windows NT 10.0; Win64; x64) AppleWebKit/537.36 (KHTML, like Gecko) Chrome/121.0.0.0 Safari/537.36" etag="dN5cROEGo7r2vt4jsdyJ" version="23.1.2" type="device">
  <diagram name="Página-1" id="WBeRdk0hrfa7dUMtMkUr">
    <mxGraphModel dx="836" dy="469" grid="1" gridSize="10" guides="1" tooltips="1" connect="1" arrows="1" fold="1" page="1" pageScale="1" pageWidth="827" pageHeight="1169" math="0" shadow="0">
      <root>
        <mxCell id="0" />
        <mxCell id="1" parent="0" />
        <mxCell id="2zjABTcB7IJfJDChLyDm-1" value="paciente" style="rounded=0;whiteSpace=wrap;html=1;" vertex="1" parent="1">
          <mxGeometry x="40" y="50" width="120" height="60" as="geometry" />
        </mxCell>
        <mxCell id="2zjABTcB7IJfJDChLyDm-2" value="pertence&lt;br&gt;" style="rhombus;whiteSpace=wrap;html=1;" vertex="1" parent="1">
          <mxGeometry x="220" y="40" width="80" height="80" as="geometry" />
        </mxCell>
        <mxCell id="2zjABTcB7IJfJDChLyDm-3" value="médico" style="rounded=0;whiteSpace=wrap;html=1;" vertex="1" parent="1">
          <mxGeometry x="690" y="48.75" width="120" height="60" as="geometry" />
        </mxCell>
        <mxCell id="2zjABTcB7IJfJDChLyDm-4" value="" style="shape=waypoint;sketch=0;fillStyle=solid;size=6;pointerEvents=1;points=[];fillColor=none;resizable=0;rotatable=0;perimeter=centerPerimeter;snapToPoint=1;" vertex="1" parent="1">
          <mxGeometry x="55" y="120" width="20" height="20" as="geometry" />
        </mxCell>
        <mxCell id="2zjABTcB7IJfJDChLyDm-5" value="nome" style="text;html=1;align=center;verticalAlign=middle;resizable=0;points=[];autosize=1;strokeColor=none;fillColor=none;" vertex="1" parent="1">
          <mxGeometry x="75" y="115" width="50" height="30" as="geometry" />
        </mxCell>
        <mxCell id="2zjABTcB7IJfJDChLyDm-6" value="" style="shape=waypoint;sketch=0;fillStyle=solid;size=6;pointerEvents=1;points=[];fillColor=none;resizable=0;rotatable=0;perimeter=centerPerimeter;snapToPoint=1;" vertex="1" parent="1">
          <mxGeometry x="55" y="145" width="20" height="20" as="geometry" />
        </mxCell>
        <mxCell id="2zjABTcB7IJfJDChLyDm-8" value="idade" style="text;html=1;align=center;verticalAlign=middle;resizable=0;points=[];autosize=1;strokeColor=none;fillColor=none;" vertex="1" parent="1">
          <mxGeometry x="75" y="165" width="50" height="30" as="geometry" />
        </mxCell>
        <mxCell id="2zjABTcB7IJfJDChLyDm-9" value="" style="shape=waypoint;sketch=0;fillStyle=solid;size=6;pointerEvents=1;points=[];fillColor=none;resizable=0;rotatable=0;perimeter=centerPerimeter;snapToPoint=1;" vertex="1" parent="1">
          <mxGeometry x="55" y="170" width="20" height="20" as="geometry" />
        </mxCell>
        <mxCell id="2zjABTcB7IJfJDChLyDm-10" value="CPF" style="text;html=1;align=center;verticalAlign=middle;resizable=0;points=[];autosize=1;strokeColor=none;fillColor=none;" vertex="1" parent="1">
          <mxGeometry x="75" y="140" width="50" height="30" as="geometry" />
        </mxCell>
        <mxCell id="2zjABTcB7IJfJDChLyDm-11" value="" style="shape=waypoint;sketch=0;fillStyle=solid;size=6;pointerEvents=1;points=[];fillColor=none;resizable=0;rotatable=0;perimeter=centerPerimeter;snapToPoint=1;" vertex="1" parent="1">
          <mxGeometry x="700" y="115" width="20" height="20" as="geometry" />
        </mxCell>
        <mxCell id="2zjABTcB7IJfJDChLyDm-12" value="Nome&lt;br&gt;" style="text;html=1;align=center;verticalAlign=middle;resizable=0;points=[];autosize=1;strokeColor=none;fillColor=none;" vertex="1" parent="1">
          <mxGeometry x="720" y="110" width="60" height="30" as="geometry" />
        </mxCell>
        <mxCell id="2zjABTcB7IJfJDChLyDm-13" value="" style="shape=waypoint;sketch=0;fillStyle=solid;size=6;pointerEvents=1;points=[];fillColor=none;resizable=0;rotatable=0;perimeter=centerPerimeter;snapToPoint=1;" vertex="1" parent="1">
          <mxGeometry x="700" y="145" width="20" height="20" as="geometry" />
        </mxCell>
        <mxCell id="2zjABTcB7IJfJDChLyDm-14" value="CRM" style="text;html=1;align=center;verticalAlign=middle;resizable=0;points=[];autosize=1;strokeColor=none;fillColor=none;" vertex="1" parent="1">
          <mxGeometry x="725" y="140" width="50" height="30" as="geometry" />
        </mxCell>
        <mxCell id="2zjABTcB7IJfJDChLyDm-15" value="" style="shape=waypoint;sketch=0;fillStyle=solid;size=6;pointerEvents=1;points=[];fillColor=none;resizable=0;rotatable=0;perimeter=centerPerimeter;snapToPoint=1;" vertex="1" parent="1">
          <mxGeometry x="700" y="170" width="20" height="20" as="geometry" />
        </mxCell>
        <mxCell id="2zjABTcB7IJfJDChLyDm-16" value="especialidade" style="text;html=1;align=center;verticalAlign=middle;resizable=0;points=[];autosize=1;strokeColor=none;fillColor=none;" vertex="1" parent="1">
          <mxGeometry x="720" y="165" width="100" height="30" as="geometry" />
        </mxCell>
        <mxCell id="2zjABTcB7IJfJDChLyDm-19" value="" style="line;strokeWidth=4;html=1;perimeter=backbonePerimeter;points=[];outlineConnect=0;" vertex="1" parent="1">
          <mxGeometry x="160" y="75" width="60" height="10" as="geometry" />
        </mxCell>
        <mxCell id="2zjABTcB7IJfJDChLyDm-20" value="" style="line;strokeWidth=4;html=1;perimeter=backbonePerimeter;points=[];outlineConnect=0;" vertex="1" parent="1">
          <mxGeometry x="300" y="75" width="50" height="10" as="geometry" />
        </mxCell>
        <mxCell id="2zjABTcB7IJfJDChLyDm-21" value="pertence&lt;br&gt;" style="rhombus;whiteSpace=wrap;html=1;" vertex="1" parent="1">
          <mxGeometry x="535" y="40" width="80" height="80" as="geometry" />
        </mxCell>
        <mxCell id="2zjABTcB7IJfJDChLyDm-22" value="" style="line;strokeWidth=4;html=1;perimeter=backbonePerimeter;points=[];outlineConnect=0;" vertex="1" parent="1">
          <mxGeometry x="470" y="77.5" width="65" height="2.5" as="geometry" />
        </mxCell>
        <mxCell id="2zjABTcB7IJfJDChLyDm-23" value="Consulta&amp;nbsp;" style="rounded=0;whiteSpace=wrap;html=1;" vertex="1" parent="1">
          <mxGeometry x="350" y="50" width="120" height="60" as="geometry" />
        </mxCell>
        <mxCell id="2zjABTcB7IJfJDChLyDm-24" value="" style="line;strokeWidth=4;html=1;perimeter=backbonePerimeter;points=[];outlineConnect=0;" vertex="1" parent="1">
          <mxGeometry x="615" y="50" width="75" height="60" as="geometry" />
        </mxCell>
        <mxCell id="2zjABTcB7IJfJDChLyDm-27" value="" style="shape=waypoint;sketch=0;fillStyle=solid;size=6;pointerEvents=1;points=[];fillColor=none;resizable=0;rotatable=0;perimeter=centerPerimeter;snapToPoint=1;" vertex="1" parent="1">
          <mxGeometry x="55" y="200" width="20" height="20" as="geometry" />
        </mxCell>
        <mxCell id="2zjABTcB7IJfJDChLyDm-46" value="id_pac (pk)" style="text;html=1;align=center;verticalAlign=middle;resizable=0;points=[];autosize=1;strokeColor=none;fillColor=none;" vertex="1" parent="1">
          <mxGeometry x="75" y="195" width="80" height="30" as="geometry" />
        </mxCell>
        <mxCell id="2zjABTcB7IJfJDChLyDm-47" value="" style="shape=waypoint;sketch=0;fillStyle=solid;size=6;pointerEvents=1;points=[];fillColor=none;resizable=0;rotatable=0;perimeter=centerPerimeter;snapToPoint=1;" vertex="1" parent="1">
          <mxGeometry x="700" y="200" width="20" height="20" as="geometry" />
        </mxCell>
        <mxCell id="2zjABTcB7IJfJDChLyDm-48" value="id_med (pk)" style="text;html=1;align=center;verticalAlign=middle;resizable=0;points=[];autosize=1;strokeColor=none;fillColor=none;" vertex="1" parent="1">
          <mxGeometry x="725" y="195" width="90" height="30" as="geometry" />
        </mxCell>
        <mxCell id="2zjABTcB7IJfJDChLyDm-49" value="" style="shape=waypoint;sketch=0;fillStyle=solid;size=6;pointerEvents=1;points=[];fillColor=none;resizable=0;rotatable=0;perimeter=centerPerimeter;snapToPoint=1;" vertex="1" parent="1">
          <mxGeometry x="350" y="125" width="20" height="20" as="geometry" />
        </mxCell>
        <mxCell id="2zjABTcB7IJfJDChLyDm-50" value="" style="shape=waypoint;sketch=0;fillStyle=solid;size=6;pointerEvents=1;points=[];fillColor=none;resizable=0;rotatable=0;perimeter=centerPerimeter;snapToPoint=1;" vertex="1" parent="1">
          <mxGeometry x="350" y="150" width="20" height="20" as="geometry" />
        </mxCell>
        <mxCell id="2zjABTcB7IJfJDChLyDm-51" value="" style="shape=waypoint;sketch=0;fillStyle=solid;size=6;pointerEvents=1;points=[];fillColor=none;resizable=0;rotatable=0;perimeter=centerPerimeter;snapToPoint=1;" vertex="1" parent="1">
          <mxGeometry x="350" y="180" width="20" height="20" as="geometry" />
        </mxCell>
        <mxCell id="2zjABTcB7IJfJDChLyDm-52" value="#id_med (fk)" style="text;html=1;align=center;verticalAlign=middle;resizable=0;points=[];autosize=1;strokeColor=none;fillColor=none;" vertex="1" parent="1">
          <mxGeometry x="360" y="145" width="90" height="30" as="geometry" />
        </mxCell>
        <mxCell id="2zjABTcB7IJfJDChLyDm-53" value="#id_pac (fk)" style="text;html=1;align=center;verticalAlign=middle;resizable=0;points=[];autosize=1;strokeColor=none;fillColor=none;" vertex="1" parent="1">
          <mxGeometry x="360" y="175" width="90" height="30" as="geometry" />
        </mxCell>
        <mxCell id="2zjABTcB7IJfJDChLyDm-54" value="" style="shape=waypoint;sketch=0;fillStyle=solid;size=6;pointerEvents=1;points=[];fillColor=none;resizable=0;rotatable=0;perimeter=centerPerimeter;snapToPoint=1;" vertex="1" parent="1">
          <mxGeometry x="350" y="210" width="20" height="20" as="geometry" />
        </mxCell>
        <mxCell id="2zjABTcB7IJfJDChLyDm-55" value="#id_consulta (pk)" style="text;html=1;align=center;verticalAlign=middle;resizable=0;points=[];autosize=1;strokeColor=none;fillColor=none;" vertex="1" parent="1">
          <mxGeometry x="360" y="205" width="110" height="30" as="geometry" />
        </mxCell>
        <mxCell id="2zjABTcB7IJfJDChLyDm-56" value="Data" style="text;html=1;align=center;verticalAlign=middle;resizable=0;points=[];autosize=1;strokeColor=none;fillColor=none;" vertex="1" parent="1">
          <mxGeometry x="364" y="125" width="50" height="30" as="geometry" />
        </mxCell>
        <mxCell id="2zjABTcB7IJfJDChLyDm-57" value="1 :1" style="text;html=1;align=center;verticalAlign=middle;resizable=0;points=[];autosize=1;strokeColor=none;fillColor=none;" vertex="1" parent="1">
          <mxGeometry x="180" y="18" width="40" height="30" as="geometry" />
        </mxCell>
        <mxCell id="2zjABTcB7IJfJDChLyDm-58" value="1 : n" style="text;html=1;align=center;verticalAlign=middle;resizable=0;points=[];autosize=1;strokeColor=none;fillColor=none;" vertex="1" parent="1">
          <mxGeometry x="295" y="18" width="50" height="30" as="geometry" />
        </mxCell>
        <mxCell id="2zjABTcB7IJfJDChLyDm-59" value="1 : n" style="text;html=1;align=center;verticalAlign=middle;resizable=0;points=[];autosize=1;strokeColor=none;fillColor=none;" vertex="1" parent="1">
          <mxGeometry x="495" y="18" width="50" height="30" as="geometry" />
        </mxCell>
        <mxCell id="2zjABTcB7IJfJDChLyDm-60" value="1 : 1" style="text;html=1;align=center;verticalAlign=middle;resizable=0;points=[];autosize=1;strokeColor=none;fillColor=none;" vertex="1" parent="1">
          <mxGeometry x="615" y="18" width="50" height="30" as="geometry" />
        </mxCell>
      </root>
    </mxGraphModel>
  </diagram>
</mxfile>
